<svg width="272" height="99" viewBox="0 0 272 99" fill="none" xmlns="http://www.w3.org/2000/svg">
<path d="M88.6661 31.2299C95.8927 31.2299 100.33 34.2638 101.979 40.3315V42.6598C101.979 43.189 101.716 43.4536 101.19 43.4536C101.19 41.2664 100.015 39.4319 97.6643 37.9503L96.875 38.3207H96.0856L94.5596 37.1565H94.1387V38.744L94.928 39.9082V40.3315L94.5596 41.1253L91.7707 40.7019H91.4024L82.3516 43.8769C78.0718 47.7927 75.4583 52.273 74.5111 57.3177C74.5111 61.304 77.1246 64.726 82.3516 67.5835C83.825 68.3596 85.5264 68.7476 87.4558 68.7476C94.2615 68.7476 98.4536 64.0028 100.032 54.5131C100.032 52.5023 99.1201 49.486 97.2959 45.4644L98.8745 46.6286V46.2581C98.8745 45.9759 97.8221 44.653 95.7173 42.2894V41.8661H96.5066L103.979 46.6286C103.979 47.4047 105.417 50.2974 108.294 55.3069V55.7302C105.382 70.7232 98.3133 78.2197 87.0875 78.2197H85.0879C75.1601 78.2197 68.0914 72.4341 63.8817 60.8631C63.6362 59.0639 63.5134 57.6175 63.5134 56.5239C67.3021 39.6612 75.6863 31.2299 88.6661 31.2299Z" fill="black"/>
<path d="M154.547 25.3032L154.968 26.097C154.968 26.4145 153.916 26.9437 151.811 27.6845C151.811 28.6017 150.25 30.7007 147.128 33.9815H144.76C137.814 35.3574 134.025 36.4157 133.394 37.1565C133.394 38.6382 128.149 48.4983 117.66 66.7368C113.556 75.1681 109.907 81.4828 106.715 85.6809L105.926 86.0513H105.505L104.715 85.6809L105.136 84.8871V83.2996C105.136 83.0527 104.873 81.9944 104.347 80.1247C104.417 79.5955 104.68 79.3309 105.136 79.3309L104.347 73.4043C106.347 71.2876 109.609 63.8088 114.135 50.9677L120.817 38.6911H116.503C112.854 38.5147 111.03 37.8621 111.03 36.7332L113.345 33.6111C113.345 33.3642 113.1 32.3059 112.609 30.4361C114.573 28.3195 117.695 27.2612 121.975 27.2612L136.919 26.097V26.4674L137.709 26.097H140.813C144.006 26.097 148.584 25.8324 154.547 25.3032Z" fill="black"/>
<path d="M163.809 15.8841L164.177 16.625L163.809 17.3658C165.282 19.4824 166.019 20.7172 166.019 21.0699L167.86 20.6995V21.0699C167.86 23.0102 168.088 25.0916 168.544 27.3141H168.229L168.544 28.0549V30.2774C168.544 33.2054 169.895 42.1659 172.596 57.1589H172.965C173.877 48.9745 176.315 41.9719 180.279 36.1511L179.911 35.4103C182.577 30.4714 184.418 27.7727 185.436 27.3141H186.172C186.558 27.3141 187.523 28.5488 189.067 31.0182C189.523 30.7713 190.014 30.6478 190.54 30.6478L191.277 31.7061C191.277 31.9531 191.154 32.0765 190.908 32.0765L191.277 33.9286C191.277 36.8919 189.698 41.0723 186.541 46.4698L174.806 69.7001C175.789 74.0393 176.28 76.4911 176.28 77.0555L175.543 77.4259H175.175C174.578 74.2509 173.105 72.6634 170.755 72.6634C170.755 71.4287 169.544 70.194 167.124 68.9593C167.124 68.0421 165.282 61.9038 161.599 50.5444C160.371 46.7697 159.757 44.5472 159.757 43.8769C157.196 47.4047 151.337 57.5999 142.181 74.4626C136.323 83.8112 133.271 88.4855 133.025 88.4855L132.289 88.8559L131.92 88.115C133.394 86.7039 134.13 85.1164 134.13 83.3526C133.78 83.3526 133.411 82.9821 133.025 82.2413V81.5005C133.517 80.5127 133.885 80.0188 134.13 80.0188C133.639 79.2074 133.394 78.5901 133.394 78.1667L133.762 76.6851L133.394 74.833C135.253 72.293 138.428 65.0435 142.918 53.0844C146.672 45.4997 149.969 39.3614 152.811 34.6695L157.915 23.9803V19.5883C158.055 19.0591 158.669 18.5652 159.757 18.1066C160.248 18.3536 160.616 18.477 160.862 18.477C160.862 18.3006 161.844 17.4363 163.809 15.8841Z" fill="black"/>
<path d="M199.801 33.6111C204.327 33.8581 208.115 33.9815 211.167 33.9815H212.272C213.29 33.9815 214.623 33.8581 216.272 33.6111C216.517 33.8581 217.499 33.9815 219.218 33.9815L219.955 33.6111L220.692 33.9815L222.481 33.6111V33.9815C222.972 33.7346 223.34 33.6111 223.586 33.6111C225.059 33.8581 225.796 34.2285 225.796 34.7224V35.0928C224.287 35.0928 223.305 36.1864 222.849 38.3736C222.428 38.3736 221.463 39.3614 219.955 41.3369C218.832 41.3369 215.044 42.2012 208.589 43.9298L205.326 44.3002C205.116 44.3002 204.379 44.1768 203.116 43.9298C202.941 43.9298 202.204 44.0533 200.906 44.3002C196.767 44.0533 194.697 43.3125 194.697 42.0777C194.978 42.0777 195.592 41.09 196.539 39.1144V38.3736L195.802 37.3153V36.5744C196.784 35.9042 197.275 35.2868 197.275 34.7224C197.486 34.7224 198.328 34.352 199.801 33.6111ZM193.592 47.2106L194.329 47.5811C194.574 47.5811 194.697 47.4576 194.697 47.2106L197.275 47.5811H207.484C209.589 47.5811 212.886 47.7045 217.377 47.9515L217.745 48.6923C217.359 48.6923 215.289 50.8972 211.536 55.3069L210.062 54.9364C204.449 56.912 200.187 57.8998 197.275 57.8998C196.995 57.8998 196.626 57.7763 196.17 57.5293C194.837 57.7763 193.732 57.8998 192.855 57.8998H189.961C189.575 57.8998 189.084 57.4059 188.488 56.4181C189.224 54.1603 189.593 52.8198 189.593 52.3965C189.032 52.3965 188.663 51.7791 188.488 50.5444C190.347 48.3219 192.048 47.2106 193.592 47.2106ZM214.114 61.551C219.692 61.551 222.481 62.0449 222.481 63.0326V63.4031H221.06C219.692 63.4031 218.464 64.3908 217.377 66.3664C216.359 66.3664 215.272 67.3365 214.114 69.2768C212.746 69.0651 211.764 68.9593 211.167 68.9593C202.397 71.3934 196.17 72.6105 192.487 72.6105H191.014L189.224 72.2401C189.224 72.734 188.979 72.9809 188.488 72.9809H181.91C180.191 72.9809 179.332 72.3636 179.332 71.1289L180.437 69.2768C180.191 69.2768 180.068 69.171 180.068 68.9593C180.524 68.7123 180.893 68.5889 181.173 68.5889C181.173 68.2361 180.682 67.3718 179.7 65.996C181.91 64.3732 183.015 63.3854 183.015 63.0326C185.295 62.5388 187.12 62.2918 188.488 62.2918H196.17L198.012 61.9214V62.2918C198.258 62.2918 198.38 62.1683 198.38 61.9214C205.923 61.6745 211.167 61.551 214.114 61.551Z" fill="black"/>
<path d="M270.945 25.3032L271.366 26.097C271.366 26.4145 270.313 26.9437 268.208 27.6845C268.208 28.6017 266.647 30.7007 263.525 33.9815H261.157C254.211 35.3574 250.422 36.4157 249.791 37.1565C249.791 38.6382 244.546 48.4983 234.057 66.7368C229.953 75.1681 226.305 81.4828 223.112 85.6809L222.323 86.0513H221.902L221.113 85.6809L221.534 84.8871V83.2996C221.534 83.0527 221.271 81.9944 220.744 80.1247C220.814 79.5955 221.078 79.3309 221.534 79.3309L220.744 73.4043C222.744 71.2876 226.006 63.8088 230.532 50.9677L237.215 38.6911H232.9C229.251 38.5147 227.427 37.8621 227.427 36.7332L229.742 33.6111C229.742 33.3642 229.497 32.3059 229.006 30.4361C230.97 28.3195 234.092 27.2612 238.372 27.2612L253.317 26.097V26.4674L254.106 26.097H257.211C260.403 26.097 264.981 25.8324 270.945 25.3032Z" fill="black"/>
<path d="M11.7444 13.7611C11.9381 13.6173 12.3063 13.4567 12.849 13.2792C13.3076 13.089 13.8567 12.8693 14.4962 12.6199C15.1358 12.3706 15.7204 12.1995 16.2502 12.1068C16.7089 11.9166 17.0286 11.7919 17.2095 11.7328C17.3775 11.7583 17.6296 11.7966 17.9656 11.8476C18.2305 11.8013 18.4598 11.7062 18.6536 11.5624C18.6793 11.393 18.9022 11.3403 19.3223 11.4041C19.4903 11.4296 19.7067 11.4192 19.9716 11.3728C20.2365 11.3264 20.5014 11.28 20.7663 11.2336C22.162 11.0992 23.4736 10.9519 24.7012 10.7919C25.9288 10.632 26.9755 10.5311 27.8414 10.4894C28.1903 10.4558 28.5328 10.4645 28.8688 10.5155C29.3017 10.4947 29.6086 10.4547 29.7895 10.3955C30.3193 10.3028 30.9202 10.3074 31.5923 10.4096C32.7685 10.5882 33.1174 10.5546 32.6391 10.3087C32.2447 10.0755 31.2075 9.83134 29.5272 9.57608C28.2671 9.38463 27.3849 9.25062 26.8809 9.17405C26.4737 9.02556 26.1989 8.85389 26.0566 8.65903C25.9143 8.46416 25.9465 8.25249 26.1531 8.02401C26.3726 7.71086 26.6083 7.57342 26.8604 7.61171C27.1124 7.65 27.3353 7.59724 27.529 7.45342C27.5419 7.36875 27.7648 7.31599 28.1977 7.29514C28.6306 7.27429 28.9311 7.27662 29.0991 7.30215C29.2089 7.14557 29.4318 7.09281 29.7678 7.14386C30.1167 7.11024 30.8501 7.09172 31.968 7.0883C32.6658 7.02106 33.1471 6.96426 33.412 6.91788C33.8578 6.81235 35.0113 6.85765 36.8724 7.05376C38.7335 7.24988 40.5462 7.48195 42.3104 7.74997C42.6465 7.80102 43.1925 7.88398 43.9486 7.99885C44.7047 8.11371 45.4544 8.27091 46.1976 8.47045C47.0249 8.68275 47.7681 8.88228 48.4274 9.06906C49.1706 9.2686 49.6554 9.47218 49.8817 9.6798C50.192 9.90019 50.5572 10.0423 50.9772 10.1061C51.3133 10.1572 51.7561 10.3544 52.3055 10.6977C52.9519 10.9692 53.5854 11.3253 54.2061 11.7661C54.8396 12.1222 55.4246 12.5142 55.9612 12.9422C56.5819 13.383 57.0409 13.7559 57.3384 14.061C58.3276 14.9043 58.9903 15.3514 59.3263 15.4025C59.5784 15.4408 59.7528 15.424 59.8497 15.3521C60.2115 15.2338 60.3923 15.1746 60.3923 15.1746C60.5604 15.2002 60.8934 15.5539 61.3914 16.236C61.8895 16.918 62.4167 17.6911 62.973 18.5552C63.5293 19.4193 64.008 20.2284 64.4092 20.9823C64.8944 21.749 65.2081 22.2298 65.3504 22.4246C65.4927 22.6195 65.593 22.808 65.6513 22.9901C65.8065 23.1003 65.926 23.1618 66.01 23.1745C66.0941 23.1873 66.0714 23.0539 65.9419 22.7744C65.7996 22.5795 65.7478 22.3551 65.7864 22.101C65.8893 21.4237 65.5781 20.0771 64.853 18.0612C64.445 16.7865 64.2539 16.0645 64.2796 15.8951C64.2084 15.7977 64.1308 15.7426 64.0468 15.7298C63.8788 15.7043 63.8141 15.5645 63.8527 15.3105C63.8784 15.1412 63.833 14.8744 63.7164 14.5102C63.5998 14.146 63.6804 13.8984 63.9582 13.7673C64.32 13.649 64.4588 13.5835 64.3748 13.5708C64.6269 13.609 64.8695 13.9924 65.1026 14.7208C65.4326 15.3773 65.6268 15.7966 65.6851 15.9787C65.8599 16.525 65.9765 16.8892 66.0348 17.0713C66.1899 17.1815 66.3515 17.2494 66.5195 17.2749L66.8976 17.3323C67.4145 17.3242 67.8089 17.5574 68.0806 18.0318C68.2812 18.4088 68.6566 19.332 69.2069 20.8016C69.7572 22.2712 70.094 23.4485 70.2175 24.3334C70.3083 24.867 70.4056 25.3582 70.5093 25.8071C70.6387 26.0866 70.5971 26.6433 70.3845 27.4773C70.2687 28.2393 70.0981 29.0796 69.8726 29.9982C69.6599 30.8321 69.4053 31.6597 69.1086 32.4808C68.896 33.3148 68.6735 33.9307 68.4412 34.3285C68.2217 34.6416 68.0927 34.9252 68.0541 35.1792C67.9769 35.6872 67.706 36.3391 67.2413 37.1347C66.8735 37.8584 66.4217 38.5694 65.8859 39.2676C65.434 39.9786 64.9531 40.5985 64.443 41.1274C64.0169 41.669 63.7619 41.9335 63.6778 41.9207L63.3872 42.1364C63.3615 42.3058 63.0872 42.6972 62.5642 43.3107C62.1381 43.8524 61.7798 44.231 61.4891 44.4468L61.0532 44.7703C61.0403 44.855 60.9855 44.9333 60.8886 45.0052C60.85 45.2592 60.6854 45.4941 60.3948 45.7098C60.201 45.8536 59.9588 46.0334 59.6682 46.2491C59.4745 46.3929 59.2743 46.5791 59.0677 46.8075C58.8611 47.036 58.4671 47.366 57.8859 47.7974C57.4015 48.157 56.8687 48.5524 56.2875 48.9839C55.7062 49.4153 55.1314 49.8044 54.563 50.1512C54.0915 50.4261 53.7297 50.5443 53.4777 50.5061C53.2257 50.4678 53.0834 50.2729 53.0508 49.9215C53.0765 49.7521 52.9634 49.6483 52.7114 49.61C52.4593 49.5717 51.6453 49.8379 50.2694 50.4085C48.0602 51.3722 45.6409 52.304 43.0117 53.2039C42.8179 53.3477 42.8891 53.4452 43.2251 53.4962C43.5612 53.5473 44.3593 53.6685 45.6194 53.86C47.2997 54.1152 48.3725 54.4081 48.838 54.7387C49.4004 54.9974 49.7561 55.4846 49.9052 56.2002C50.0089 56.6491 50.633 57.3503 51.7774 58.3037C52.8506 59.1598 53.701 60.0686 54.3285 61.0301C55.0528 61.9198 55.3893 62.5339 55.3378 62.8726C55.2864 63.2113 55.1153 63.4885 54.8247 63.7042C54.547 63.8353 54.2821 63.8816 54.03 63.8434C53.694 63.7923 53.5131 63.8514 53.4874 64.0208C53.4616 64.1901 53.5589 64.6813 53.7792 65.4944C54.0192 66.7436 53.8618 68.0624 53.3071 69.4507C52.7524 70.839 51.6228 72.6164 49.9185 74.783C49.3955 75.3965 48.8597 76.0947 48.311 76.8776C47.8592 77.5886 47.5107 78.1853 47.2655 78.6678C45.7618 81.2113 44.6738 82.432 44.0017 82.3299C43.8337 82.3044 43.685 82.1518 43.5556 81.8723C43.4133 81.6774 43.355 81.4953 43.3807 81.326C43.4904 81.1694 43.7163 80.8139 44.0584 80.2596C44.6328 79.3073 44.878 78.8248 44.794 78.8121L44.6487 78.9199C44.455 79.0638 44.2321 79.1165 43.98 79.0782C43.476 79.0016 42.2295 79.8518 40.2405 81.6286C39.937 81.929 39.4462 82.3308 38.7681 82.8342C38.1869 83.2656 37.5152 83.7266 36.7531 84.2172C36.0878 84.6359 35.387 85.0058 34.6506 85.3271C33.9982 85.6611 33.4619 85.7962 33.0419 85.7324C32.5378 85.6558 32.3179 85.4058 32.3823 84.9825C32.4466 84.5591 32.9374 84.1573 33.8547 83.7769C34.772 83.3965 35.6052 83.0033 36.3545 82.5974C37.1038 82.1915 37.4073 81.8911 37.265 81.6963L36.7223 81.8737C36.4445 82.0047 35.9375 82.2309 35.2011 82.5521C34.5487 82.8861 33.7702 83.201 32.8658 83.4967C32.0454 83.8052 31.0471 83.8701 29.871 83.6914C29.1149 83.5766 28.5816 83.4089 28.2713 83.1885C28.1162 83.0783 27.8706 82.9977 27.5345 82.9467C27.1985 82.8956 26.6751 82.946 25.9644 83.0979C25.3506 83.1779 24.682 83.3362 23.9584 83.5728C23.2349 83.8094 22.5533 84.0523 21.9138 84.3017C21.2743 84.551 20.8156 84.7412 20.5379 84.8722C19.8015 85.1935 19.1199 85.4364 18.4933 85.6011C17.9377 85.8632 17.618 85.9879 17.534 85.9751C17.3659 85.9496 17.2108 85.8394 17.0685 85.6445C16.6673 84.8906 17.3776 84.1756 19.1993 83.4995C20.0197 83.191 20.4784 83.0008 20.5753 82.9289C20.7561 82.8698 20.7334 82.7364 20.5071 82.5287C20.436 82.4313 20.2324 82.3571 19.8963 82.306C19.6443 82.2677 19.4278 82.2782 19.2469 82.3373C18.7172 82.4301 18.2422 82.4445 17.8222 82.3807C17.4021 82.3169 17.1728 82.412 17.1342 82.666C17.0699 83.0894 16.757 83.7348 16.1954 84.6023C15.7179 85.4827 15.2271 85.8845 14.723 85.8079C13.9669 85.6931 13.4375 86.349 13.1348 87.7756C12.7481 89.1894 12.403 90.0465 12.0996 90.3469C11.8672 90.7448 11.499 90.9054 10.995 90.8288C10.6589 90.7778 10.4035 90.4791 10.2286 89.9328C10.0537 89.3865 9.98219 88.7259 10.0139 87.9511C10.0457 87.1763 10.1611 85.8512 10.36 83.9757C10.5136 81.8335 10.5291 80.8829 10.4065 81.1242C10.1999 81.3527 9.97053 81.4478 9.7185 81.4095C9.55047 81.384 9.47289 81.3289 9.48576 81.2442C9.42747 81.0621 9.44978 80.6324 9.55268 79.955C9.70704 78.939 9.83265 78.395 9.92953 78.3231C10.0135 78.3359 10.1781 78.101 10.4233 77.6185C10.6428 77.3053 10.8752 76.9075 11.1204 76.425C11.2815 75.9298 11.4719 75.5256 11.6913 75.2124C11.7171 75.0431 11.817 74.6685 11.991 74.0885C12.0811 73.4959 12.2101 73.2123 12.3781 73.2378C12.5719 73.094 12.6945 72.8527 12.7459 72.5141C12.836 71.9214 12.9358 71.5467 13.0456 71.3902C13.2522 71.1617 13.4974 70.6792 13.7812 69.9427C13.9938 69.1088 14.2999 67.9425 14.6995 66.444C14.8478 66.0334 15.009 65.5382 15.183 64.9583C15.3571 64.3783 15.5183 63.8831 15.6666 63.4725C15.8149 63.0619 15.9277 62.6026 16.0049 62.0946C16.166 61.5993 16.3144 61.1888 16.4498 60.8628L16.7109 59.993L15.9651 60.6593C15.7713 60.8031 15.5647 61.0316 15.3452 61.3447C15.1258 61.6579 14.9127 61.9287 14.7061 62.1572C14.4738 62.555 14.1638 62.8977 13.7763 63.1853C13.3889 63.473 13.1111 63.604 12.9431 63.5785C12.775 63.553 12.5843 63.394 12.3709 63.1017C12.2997 63.0043 12.2221 62.9492 12.1381 62.9365C11.9701 62.9109 11.7892 62.9701 11.5955 63.1139C11.4017 63.2577 11.0142 63.5453 10.433 63.9768C9.65799 64.552 9.13161 64.9052 8.85385 65.0362C8.57609 65.1673 8.31763 65.1713 8.07846 65.0484C7.75527 64.9126 7.61941 64.6754 7.67086 64.3368C7.69658 64.1674 7.81275 63.9685 8.01936 63.74C8.23884 63.4269 8.6812 63.061 9.34646 62.6423C9.83083 62.2828 10.2248 61.9528 10.5282 61.6524C10.8317 61.352 10.9963 61.1171 11.0221 60.9478C11.0607 60.6938 11.5159 60.2432 12.3877 59.5961C12.7752 59.3084 13.1207 59.0144 13.4242 58.714C13.6566 58.3162 13.8276 58.039 13.9373 57.8824C14.1825 57.4 14.1855 57.0972 13.9464 56.9743C13.6361 56.7539 13.4873 56.6013 13.5002 56.5167C13.5902 55.924 14.2165 55.1962 15.379 54.3333C15.8634 53.9738 16.2024 53.7221 16.3962 53.5783C16.5188 53.3371 16.5509 53.1254 16.4926 52.9433C16.4344 52.7612 16.4537 52.6342 16.5505 52.5623C16.5763 52.3929 16.7893 52.1221 17.1897 51.7498C17.9646 51.1746 18.3972 50.5906 18.4872 49.9979C18.5901 49.3206 18.7676 49.001 19.0196 49.0393C19.2134 48.8955 19.3295 48.6966 19.3681 48.4426C19.4196 48.1039 19.5906 47.8267 19.8812 47.611C20.075 47.4672 20.3558 47.0334 20.7236 46.3097C21.1754 45.5987 21.427 45.0739 21.4784 44.7352C21.5299 44.3965 21.7202 43.9923 22.0494 43.5226C22.4627 43.0656 22.695 42.6678 22.7465 42.3291C22.7722 42.1598 22.8043 41.9481 22.8429 41.6941C22.9784 41.3682 23.1559 41.0487 23.3753 40.7355C23.9497 39.7833 24.2627 39.1378 24.3141 38.7992C24.4496 38.4733 24.543 38.141 24.5945 37.8023C24.6202 37.6329 24.6815 37.5123 24.7784 37.4404C24.7913 37.3557 24.8041 37.2711 24.817 37.1864C24.9139 37.1145 25.0913 36.795 25.3494 36.2278C25.646 35.4066 25.9847 34.5918 26.3654 33.7834C26.746 32.975 27.0847 32.1602 27.3813 31.3391C27.6523 30.6872 27.8975 30.2048 28.1169 29.8916C28.3621 29.4091 28.5105 28.9985 28.5619 28.6599C28.5876 28.4905 28.6554 28.3276 28.7651 28.171C28.8748 28.0144 28.9846 27.8578 29.0943 27.7013C29.3138 27.3881 29.4557 27.0199 29.52 26.5965C29.6229 25.9192 29.797 25.3392 30.0422 24.8567C30.2874 24.3742 30.5133 24.0188 30.7199 23.7903C30.9394 23.4771 31.0748 23.1512 31.1263 22.8125C31.1777 22.4739 31.3003 22.2326 31.4941 22.0888C31.5909 22.0169 31.7135 21.7756 31.8619 21.3651C32.0102 20.9545 32.252 20.2116 32.5872 19.1364C32.9482 17.8919 33.3807 17.3079 33.8848 17.3845C34.1368 17.4228 34.3147 17.6664 34.4184 18.1153C34.6061 18.5769 34.6678 19.0194 34.6035 19.4427C34.5134 20.0354 34.5944 20.3509 34.8465 20.3892C35.1825 20.4402 35.4247 20.2605 35.573 19.8499C35.7214 19.4393 35.9215 19.2532 36.1736 19.2915C36.5936 19.3553 36.5554 20.1724 36.059 21.7428C35.885 22.3227 35.8819 22.6255 36.05 22.651C36.302 22.6893 36.6218 22.5646 37.0093 22.277C37.4096 21.9047 37.684 21.5133 37.8323 21.1027C38.0904 20.5355 38.4131 20.1081 38.8006 19.8205C39.201 19.4482 39.5628 19.3299 39.8859 19.4656C40.2931 19.6141 40.5743 19.7435 40.7295 19.8537C40.8975 19.8792 41.0655 19.9047 41.2335 19.9302C41.7376 20.0068 42.0347 19.7488 42.1247 19.1561C42.1504 18.9867 42.357 18.7582 42.7445 18.4706C43.2161 18.1958 43.5358 18.0711 43.7038 18.0966C43.8719 18.1221 44.0142 18.317 44.1307 18.6812C44.2602 18.9607 44.4509 19.1196 44.7029 19.1579C44.955 19.1962 45.2747 19.0716 45.6622 18.7839C46.2435 18.3525 46.0913 17.9396 45.2058 17.5452C43.1955 16.6334 40.8883 15.9797 38.2839 15.5841C37.1077 15.4054 35.8411 15.2563 34.4841 15.1367C33.1399 14.9325 32.1189 14.864 31.4211 14.9313C29.7863 14.9428 28.6749 14.9039 28.0868 14.8145C27.6667 14.7507 27.3855 14.6214 27.2432 14.4265C27.269 14.2572 27.4044 13.9313 27.6496 13.4488C27.7722 13.2075 27.882 13.0509 27.9788 12.979C28.0757 12.9071 28.0401 12.8584 27.8721 12.8329C27.7041 12.8074 27.5297 12.8242 27.3488 12.8833C26.819 12.9761 26.4701 13.0097 26.302 12.9842C25.966 12.9331 25.5331 12.954 25.0033 13.0467C24.8224 13.1059 24.5575 13.1523 24.2086 13.1859C23.8725 13.1348 23.5721 13.1325 23.3072 13.1789C22.8743 13.1997 22.3445 13.2925 21.7178 13.4572C21.02 13.5244 20.3577 13.6403 19.7311 13.805C19.0333 13.8722 18.4194 13.9522 17.8897 14.045C17.3599 14.1378 17.0465 14.2201 16.9497 14.292C16.5879 14.4103 16.281 14.4503 16.0289 14.412C15.8609 14.3865 15.68 14.4456 15.4863 14.5894C15.3894 14.6613 15.173 14.6718 14.8369 14.6207C14.5849 14.5824 14.278 14.6224 13.9162 14.7407C13.2767 14.9901 12.8665 15.1443 12.6856 15.2034C12.5176 15.1779 12.3075 15.146 12.0555 15.1077C11.6354 15.0439 11.4027 14.8786 11.3573 14.6118C11.3247 14.2604 11.4537 13.9768 11.7444 13.7611ZM37.5369 41.7175C37.6209 41.7303 37.8566 41.5928 38.2441 41.3052C38.4379 41.1614 38.6188 41.1022 38.7868 41.1278C38.9677 41.0686 39.1486 41.0095 39.3294 40.9503C39.5103 40.8912 39.8301 40.7665 40.2887 40.5763C40.7474 40.3861 41.2125 40.1536 41.684 39.8788C42.1555 39.6039 42.585 39.3226 42.9725 39.035C43.444 38.7602 43.7282 38.5868 43.825 38.5149C43.9219 38.443 44.1577 38.3055 44.5323 38.1026C44.9069 37.8996 45.3236 37.703 45.7822 37.5128C47.8946 36.621 49.1346 35.8132 49.5024 35.0895C49.6379 34.7636 49.9997 34.6453 50.5878 34.7346C50.7558 34.7602 50.9174 34.828 51.0725 34.9382C51.2405 34.9638 51.3666 34.9829 51.4506 34.9957C51.412 35.2497 51.1796 35.6475 50.7536 36.1891C50.2435 36.718 49.9563 37.1941 49.8919 37.6175C49.8405 37.9561 49.8988 38.1382 50.0668 38.1638C50.3188 38.202 50.7355 38.0055 51.3167 37.574C51.6073 37.3583 51.9464 37.1066 52.3339 36.819C52.8054 36.5442 53.2285 36.3052 53.6031 36.1023C56.1415 34.6688 57.5137 33.2747 57.7195 31.92C57.7709 31.5814 57.47 31.0159 56.8168 30.2237C56.2477 29.4442 55.546 28.688 54.7119 27.9549C53.9747 27.1499 53.2667 26.436 52.5877 25.8131C51.9088 25.1902 51.4853 24.866 51.3173 24.8405C51.2333 24.8277 51.049 24.6265 50.7644 24.2367C50.4798 23.847 50.4117 23.4468 50.56 23.0363C50.6955 22.7103 50.6856 22.4923 50.5305 22.3821C50.4722 22.2 50.2652 21.8654 49.9094 21.3782C49.612 21.0731 49.3016 20.8527 48.9785 20.717C48.6681 20.4966 48.5001 20.4711 48.4744 20.6404C48.4615 20.7251 48.3196 21.0934 48.0487 21.7452C47.939 21.9018 47.7808 22.0943 47.5742 22.3228C47.4516 22.564 47.3354 22.7629 47.2257 22.9195C47.1159 23.0761 46.8965 23.3892 46.5673 23.859C46.3349 24.2568 46.0962 24.6969 45.851 25.1794C45.6058 25.6619 45.367 26.1021 45.1346 26.4999C44.9023 26.8977 44.7733 27.1813 44.7476 27.3506C44.7218 27.52 44.6961 27.6893 44.6704 27.8587C44.6447 28.028 44.5834 28.1486 44.4865 28.2205C44.3767 28.3771 44.1993 28.6966 43.9541 29.1791C43.7217 29.5769 43.483 30.0171 43.2378 30.4996C43.2249 30.5843 43.1087 30.7832 42.8893 31.0963C42.7667 31.3376 42.5892 31.6571 42.3569 32.0549C42.2214 32.3808 42.0859 32.7068 41.9505 33.0327C41.815 33.3586 41.7408 33.5639 41.728 33.6485C41.6765 33.9872 41.6088 34.1502 41.5248 34.1374C41.331 34.2812 41.2213 34.4378 41.1956 34.6071C41.1313 35.0305 40.9538 35.35 40.6632 35.5657C40.4694 35.7096 40.3597 35.8661 40.334 36.0355C40.3082 36.2048 40.2889 36.3318 40.2761 36.4165C40.2632 36.5012 40.0502 36.772 39.6369 37.2289C39.3463 37.4447 39.1624 37.8065 39.0852 38.3145C39.0595 38.4839 38.9918 38.6468 38.882 38.8034C38.7723 38.96 38.6626 39.1166 38.5528 39.2731C38.1139 39.8994 37.8558 40.4666 37.7786 40.9746C37.5978 41.0338 37.446 41.184 37.3234 41.4252C37.2977 41.5945 37.3688 41.692 37.5369 41.7175ZM22.9159 76.0081C24.6022 75.6579 25.4873 75.4892 25.5713 75.502C25.7522 75.4428 25.7715 75.3158 25.6292 75.121C25.4869 74.9261 25.393 74.6953 25.3476 74.4285C25.3862 74.1745 25.5024 73.9756 25.6961 73.8318C25.877 73.7726 26.1483 73.6839 26.5101 73.5656C26.8719 73.4473 27.3177 73.3418 27.8474 73.2491C29.6306 72.827 31.5072 72.0726 33.4772 70.9859C35.5313 69.912 36.9908 68.791 37.8558 67.6231L38.6596 66.5758L37.9999 65.8259C37.7154 65.4362 37.5439 65.1502 37.4856 64.9681C37.4273 64.786 37.5208 64.4537 37.766 63.9712C38.0369 63.3194 38.0592 62.8897 37.8329 62.6821C37.7746 62.5 37.5355 62.377 37.1154 62.3132C36.6954 62.2494 36.3885 62.2894 36.1947 62.4332C35.8329 62.5515 35.442 62.5787 35.022 62.5149C34.7699 62.4766 34.4759 62.4319 34.1398 62.3809C33.9007 62.2579 33.5775 62.1222 33.1703 61.9737C32.9311 61.8508 32.7275 61.7765 32.5595 61.751C32.4884 61.6536 32.3688 61.5921 32.2008 61.5666C32.1167 61.5538 31.8938 61.6066 31.5321 61.7248C31.3512 61.784 31.1283 61.8367 30.8634 61.8831C30.6825 61.9423 30.4661 61.9527 30.214 61.9144C29.4579 61.7995 28.5244 62.0042 27.4133 62.5284C26.3023 63.0526 25.6824 63.7381 25.5538 64.5847C25.4766 65.0928 25.354 65.334 25.186 65.3085C24.9923 65.4523 24.8632 65.7359 24.7989 66.1592C24.7089 66.7519 24.5798 67.0355 24.4118 67.01C24.3149 67.0819 24.2344 67.3295 24.17 67.7528C24.1443 67.9222 24.0701 68.1275 23.9475 68.3687C23.8378 68.5253 23.7216 68.7242 23.599 68.9655C23.4893 69.122 23.2312 69.6892 22.8249 70.6669C22.4185 71.6447 22.1668 72.1695 22.07 72.2414C21.9019 72.2159 21.7858 72.4148 21.7215 72.8381C21.67 73.1768 21.5345 73.5027 21.3151 73.8159C21.2053 73.9725 21.0892 74.1714 20.9666 74.4126C20.9408 74.582 20.8731 74.7449 20.7634 74.9015C20.6536 75.0581 20.5375 75.257 20.4149 75.4982C20.3891 75.6676 20.3214 75.8305 20.2117 75.9871C20.0891 76.2283 20.1118 76.3617 20.2798 76.3872C20.6158 76.4383 21.4945 76.3119 22.9159 76.0081Z" fill="black"/>
<line x1="44.3077" y1="9.4045" x2="47.3077" y2="1.4045" stroke="black" stroke-width="8"/>
<line x1="57.2939" y1="17.442" x2="61.2939" y2="6.44202" stroke="black" stroke-width="8"/>
<line x1="32.0542" y1="77.6459" x2="25.1075" y2="93.5997" stroke="black" stroke-width="8"/>
<line x1="17.5439" y1="75.5468" x2="9.88724" y2="93.4503" stroke="black" stroke-width="8"/>
</svg>
